<svg width="32" height="32" viewBox="0 0 32 32" fill="none" xmlns="http://www.w3.org/2000/svg">
<path d="M8.38464 9.59999H23.6154V20.7692H8.38464V9.59999Z" stroke="white" stroke-width="1.5" stroke-linecap="round" stroke-linejoin="round"/>
<path d="M18.5385 9.59999V20.7692" stroke="white" stroke-width="1.5" stroke-linecap="round" stroke-linejoin="round"/>
<path d="M20.5692 15.6923H21.5846" stroke="white" stroke-width="1.5" stroke-linecap="round" stroke-linejoin="round"/>
<path d="M20.5692 17.7231H21.5846" stroke="white" stroke-width="1.5" stroke-linecap="round" stroke-linejoin="round"/>
<path d="M21.077 12.9C21.1272 12.9 21.1763 12.9149 21.218 12.9428C21.2597 12.9707 21.2923 13.0103 21.3115 13.0567C21.3307 13.1031 21.3357 13.1541 21.3259 13.2034C21.3161 13.2526 21.292 13.2978 21.2565 13.3333C21.221 13.3688 21.1757 13.393 21.1265 13.4028C21.0772 13.4126 21.0262 13.4076 20.9798 13.3884C20.9334 13.3691 20.8938 13.3366 20.8659 13.2949C20.838 13.2531 20.8231 13.204 20.8231 13.1538C20.8231 13.0865 20.8499 13.0219 20.8975 12.9743C20.9451 12.9267 21.0096 12.9 21.077 12.9" stroke="white" stroke-width="1.5" stroke-linecap="round" stroke-linejoin="round"/>
<path d="M9.40002 22.8L11.4308 20.7692" stroke="white" stroke-width="1.5" stroke-linecap="round" stroke-linejoin="round"/>
<path d="M22.6 22.8L20.5692 20.7692" stroke="white" stroke-width="1.5" stroke-linecap="round" stroke-linejoin="round"/>
</svg>
